CddbId:a10f3a63:[150, 889, 3613, 5884, 9151, 12195, 15510, 18534, 21202, 23396, 25353, 27666, 30592, 33608, 36241, 38902, 42044, 44956, 47227, 48940, 51288, 54590, 57446, 60476, 63604, 65345, 67602, 69964, 71071, 73858, 77034, 80155, 82029, 84557, 87790, 90235, 93035, 94665, 98350, 100983, 103700, 106458, 108764, 111989, 113585, 115814, 118113, 118781, 122215, 125155, 127900, 130644, 132330, 135103, 137889, 140745, 143566, 146422, 149459, 150539, 153994, 157484, 159379, 162528, 165802, 169278, 170072, 172726, 175157, 177393, 180033, 182994, 184498, 187313, 188434, 191423, 193269, 195560, 198375, 204337, 209611, 214313, 220227, 224943, 229986, 235204, 241390, 245618, 250515, 255928, 261270, 267825, 274534, 276470, 279166, 282134, 285791, 289295, 291454]:292500:74:a10f3a63 99 150 889 3613 5884 9151 12195 15510 18534 21202 23396 25353 27666 30592 33608 36241 38902 42044 44956 47227 48940 51288 54590 57446 60476 63604 65345 67602 69964 71071 73858 77034 80155 82029 84557 87790 90235 93035 94665 98350 100983 103700 106458 108764 111989 113585 115814 118113 118781 122215 125155 127900 130644 132330 135103 137889 140745 143566 146422 149459 150539 153994 157484 159379 162528 165802 169278 170072 172726 175157 177393 180033 182994 184498 187313 188434 191423 193269 195560 198375 204337 209611 214313 220227 224943 229986 235204 241390 245618 250515 255928 261270 267825 274534 276470 279166 282134 285791 289295 291454 3900: 99 0 0 0 0 0 0 0 0 0 0 0 0 0 0 0 0 0 0 0 0 0 0 0 0 0 0 0 0 0 0 0 0 0 0 0 0 0 0 0 0 0 0 0 0 0 0 0 0 0 0 0 0 0 0 0 0 0 0 0 0 0 0 0 0 0 0 0 0 0 0 0 0 0 0 0 0 0 0 0 0 0 0 0 0 0 0 0 0 0 0 0 0 0 0 0 0 0 0 0 3900
num_tracks: 99
offsets: [150, 889, 3613, 5884, 9151, 12195, 15510, 18534, 21202, 23396, 25353, 27666, 30592, 33608, 36241, 38902, 42044, 44956, 47227, 48940, 51288, 54590, 57446, 60476, 63604, 65345, 67602, 69964, 71071, 73858, 77034, 80155, 82029, 84557, 87790, 90235, 93035, 94665, 98350, 100983, 103700, 106458, 108764, 111989, 113585, 115814, 118113, 118781, 122215, 125155, 127900, 130644, 132330, 135103, 137889, 140745, 143566, 146422, 149459, 150539, 153994, 157484, 159379, 162528, 165802, 169278, 170072, 172726, 175157, 177393, 180033, 182994, 184498, 187313, 188434, 191423, 193269, 195560, 198375, 204337, 209611, 214313, 220227, 224943, 229986, 235204, 241390, 245618, 250515, 255928, 261270, 267825, 274534, 276470, 279166, 282134, 285791, 289295, 291454]
extents: [0, 0, 0, 0, 0, 0, 0, 0, 0, 0, 0, 0, 0, 0, 0, 0, 0, 0, 0, 0, 0, 0, 0, 0, 0, 0, 0, 0, 0, 0, 0, 0, 0, 0, 0, 0, 0, 0, 0, 0, 0, 0, 0, 0, 0, 0, 0, 0, 0, 0, 0, 0, 0, 0, 0, 0, 0, 0, 0, 0, 0, 0, 0, 0, 0, 0, 0, 0, 0, 0, 0, 0, 0, 0, 0, 0, 0, 0, 0, 0, 0, 0, 0, 0, 0, 0, 0, 0, 0, 0, 0, 0, 0, 0, 0, 0, 0, 0, 0]
total_length: 3900
cddb: [2702129763, 99, 150, 889, 3613, 5884, 9151, 12195, 15510, 18534, 21202, 23396, 25353, 27666, 30592, 33608, 36241, 38902, 42044, 44956, 47227, 48940, 51288, 54590, 57446, 60476, 63604, 65345, 67602, 69964, 71071, 73858, 77034, 80155, 82029, 84557, 87790, 90235, 93035, 94665, 98350, 100983, 103700, 106458, 108764, 111989, 113585, 115814, 118113, 118781, 122215, 125155, 127900, 130644, 132330, 135103, 137889, 140745, 143566, 146422, 149459, 150539, 153994, 157484, 159379, 162528, 165802, 169278, 170072, 172726, 175157, 177393, 180033, 182994, 184498, 187313, 188434, 191423, 193269, 195560, 198375, 204337, 209611, 214313, 220227, 224943, 229986, 235204, 241390, 245618, 250515, 255928, 261270, 267825, 274534, 276470, 279166, 282134, 285791, 289295, 291454, 3900]
musicbrainz: ('99 150 889 3613 5884 9151 12195 15510 18534 21202 23396 25353 27666 30592 33608 36241 38902 42044 44956 47227 48940 51288 54590 57446 60476 63604 65345 67602 69964 71071 73858 77034 80155 82029 84557 87790 90235 93035 94665 98350 100983 103700 106458 108764 111989 113585 115814 118113 118781 122215 125155 127900 130644 132330 135103 137889 140745 143566 146422 149459 150539 153994 157484 159379 162528 165802 169278 170072 172726 175157 177393 180033 182994 184498 187313 188434 191423 193269 195560 198375 204337 209611 214313 220227 224943 229986 235204 241390 245618 250515 255928 261270 267825 274534 276470 279166 282134 285791 289295 291454 292500', 'wAL0t3kl_WZNQeH5Dvb9V0SZiGY-')

CD record:
Device type    : Removable CD-ROM
Version        : 0
Response Format: 2
Capabilities   : 
Vendor_info    : 'FREECOM_'
Identification : 'DVD+/-RW16H4    '
Revision       : 'FR00'
Device seems to be: Generic mmc2 DVD-R/DVD-RW.
Using generic SCSI-3/mmc   CD-R/CD-RW driver (mmc_cdr).
Driver flags   : MMC-3 SWABAUDIO BURNFREE 
Supported modes: TAO PACKET SAO SAO/R96R RAW/R96R
first: 1 last 99
track:   1 lba:         0 (        0) 00:02:00 adr: 1 control: 0 mode: -1
track:   2 lba:       739 (     2956) 00:11:64 adr: 1 control: 0 mode: -1
track:   3 lba:      3463 (    13852) 00:48:13 adr: 1 control: 0 mode: -1
track:   4 lba:      5734 (    22936) 01:18:34 adr: 1 control: 0 mode: -1
track:   5 lba:      9001 (    36004) 02:02:01 adr: 1 control: 0 mode: -1
track:   6 lba:     12045 (    48180) 02:42:45 adr: 1 control: 0 mode: -1
track:   7 lba:     15360 (    61440) 03:26:60 adr: 1 control: 0 mode: -1
track:   8 lba:     18384 (    73536) 04:07:09 adr: 1 control: 0 mode: -1
track:   9 lba:     21052 (    84208) 04:42:52 adr: 1 control: 0 mode: -1
track:  10 lba:     23246 (    92984) 05:11:71 adr: 1 control: 0 mode: -1
track:  11 lba:     25203 (   100812) 05:38:03 adr: 1 control: 0 mode: -1
track:  12 lba:     27516 (   110064) 06:08:66 adr: 1 control: 0 mode: -1
track:  13 lba:     30442 (   121768) 06:47:67 adr: 1 control: 0 mode: -1
track:  14 lba:     33458 (   133832) 07:28:08 adr: 1 control: 0 mode: -1
track:  15 lba:     36091 (   144364) 08:03:16 adr: 1 control: 0 mode: -1
track:  16 lba:     38752 (   155008) 08:38:52 adr: 1 control: 0 mode: -1
track:  17 lba:     41894 (   167576) 09:20:44 adr: 1 control: 0 mode: -1
track:  18 lba:     44806 (   179224) 09:59:31 adr: 1 control: 0 mode: -1
track:  19 lba:     47077 (   188308) 10:29:52 adr: 1 control: 0 mode: -1
track:  20 lba:     48790 (   195160) 10:52:40 adr: 1 control: 0 mode: -1
track:  21 lba:     51138 (   204552) 11:23:63 adr: 1 control: 0 mode: -1
track:  22 lba:     54440 (   217760) 12:07:65 adr: 1 control: 0 mode: -1
track:  23 lba:     57296 (   229184) 12:45:71 adr: 1 control: 0 mode: -1
track:  24 lba:     60326 (   241304) 13:26:26 adr: 1 control: 0 mode: -1
track:  25 lba:     63454 (   253816) 14:08:04 adr: 1 control: 0 mode: -1
track:  26 lba:     65195 (   260780) 14:31:20 adr: 1 control: 0 mode: -1
track:  27 lba:     67452 (   269808) 15:01:27 adr: 1 control: 0 mode: -1
track:  28 lba:     69814 (   279256) 15:32:64 adr: 1 control: 0 mode: -1
track:  29 lba:     70921 (   283684) 15:47:46 adr: 1 control: 0 mode: -1
track:  30 lba:     73708 (   294832) 16:24:58 adr: 1 control: 0 mode: -1
track:  31 lba:     76884 (   307536) 17:07:09 adr: 1 control: 0 mode: -1
track:  32 lba:     80005 (   320020) 17:48:55 adr: 1 control: 0 mode: -1
track:  33 lba:     81879 (   327516) 18:13:54 adr: 1 control: 0 mode: -1
track:  34 lba:     84407 (   337628) 18:47:32 adr: 1 control: 0 mode: -1
track:  35 lba:     87640 (   350560) 19:30:40 adr: 1 control: 0 mode: -1
track:  36 lba:     90085 (   360340) 20:03:10 adr: 1 control: 0 mode: -1
track:  37 lba:     92885 (   371540) 20:40:35 adr: 1 control: 0 mode: -1
track:  38 lba:     94515 (   378060) 21:02:15 adr: 1 control: 0 mode: -1
track:  39 lba:     98200 (   392800) 21:51:25 adr: 1 control: 0 mode: -1
track:  40 lba:    100833 (   403332) 22:26:33 adr: 1 control: 0 mode: -1
track:  41 lba:    103550 (   414200) 23:02:50 adr: 1 control: 0 mode: -1
track:  42 lba:    106308 (   425232) 23:39:33 adr: 1 control: 0 mode: -1
track:  43 lba:    108614 (   434456) 24:10:14 adr: 1 control: 0 mode: -1
track:  44 lba:    111839 (   447356) 24:53:14 adr: 1 control: 0 mode: -1
track:  45 lba:    113435 (   453740) 25:14:35 adr: 1 control: 0 mode: -1
track:  46 lba:    115664 (   462656) 25:44:14 adr: 1 control: 0 mode: -1
track:  47 lba:    117963 (   471852) 26:14:63 adr: 1 control: 0 mode: -1
track:  48 lba:    118631 (   474524) 26:23:56 adr: 1 control: 0 mode: -1
track:  49 lba:    122065 (   488260) 27:09:40 adr: 1 control: 0 mode: -1
track:  50 lba:    125005 (   500020) 27:48:55 adr: 1 control: 0 mode: -1
track:  51 lba:    127750 (   511000) 28:25:25 adr: 1 control: 0 mode: -1
track:  52 lba:    130494 (   521976) 29:01:69 adr: 1 control: 0 mode: -1
track:  53 lba:    132180 (   528720) 29:24:30 adr: 1 control: 0 mode: -1
track:  54 lba:    134953 (   539812) 30:01:28 adr: 1 control: 0 mode: -1
track:  55 lba:    137739 (   550956) 30:38:39 adr: 1 control: 0 mode: -1
track:  56 lba:    140595 (   562380) 31:16:45 adr: 1 control: 0 mode: -1
track:  57 lba:    143416 (   573664) 31:54:16 adr: 1 control: 0 mode: -1
track:  58 lba:    146272 (   585088) 32:32:22 adr: 1 control: 0 mode: -1
track:  59 lba:    149309 (   597236) 33:12:59 adr: 1 control: 0 mode: -1
track:  60 lba:    150389 (   601556) 33:27:14 adr: 1 control: 0 mode: -1
track:  61 lba:    153844 (   615376) 34:13:19 adr: 1 control: 0 mode: -1
track:  62 lba:    157334 (   629336) 34:59:59 adr: 1 control: 0 mode: -1
track:  63 lba:    159229 (   636916) 35:25:04 adr: 1 control: 0 mode: -1
track:  64 lba:    162378 (   649512) 36:07:03 adr: 1 control: 0 mode: -1
track:  65 lba:    165652 (   662608) 36:50:52 adr: 1 control: 0 mode: -1
track:  66 lba:    169128 (   676512) 37:37:03 adr: 1 control: 0 mode: -1
track:  67 lba:    169922 (   679688) 37:47:47 adr: 1 control: 0 mode: -1
track:  68 lba:    172576 (   690304) 38:23:01 adr: 1 control: 0 mode: -1
track:  69 lba:    175007 (   700028) 38:55:32 adr: 1 control: 0 mode: -1
track:  70 lba:    177243 (   708972) 39:25:18 adr: 1 control: 0 mode: -1
track:  71 lba:    179883 (   719532) 40:00:33 adr: 1 control: 0 mode: -1
track:  72 lba:    182844 (   731376) 40:39:69 adr: 1 control: 0 mode: -1
track:  73 lba:    184348 (   737392) 40:59:73 adr: 1 control: 0 mode: -1
track:  74 lba:    187163 (   748652) 41:37:38 adr: 1 control: 0 mode: -1
track:  75 lba:    188284 (   753136) 41:52:34 adr: 1 control: 0 mode: -1
track:  76 lba:    191273 (   765092) 42:32:23 adr: 1 control: 0 mode: -1
track:  77 lba:    193119 (   772476) 42:56:69 adr: 1 control: 0 mode: -1
track:  78 lba:    195410 (   781640) 43:27:35 adr: 1 control: 0 mode: -1
track:  79 lba:    198225 (   792900) 44:05:00 adr: 1 control: 0 mode: -1
track:  80 lba:    204187 (   816748) 45:24:37 adr: 1 control: 0 mode: -1
track:  81 lba:    209461 (   837844) 46:34:61 adr: 1 control: 0 mode: -1
track:  82 lba:    214163 (   856652) 47:37:38 adr: 1 control: 0 mode: -1
track:  83 lba:    220077 (   880308) 48:56:27 adr: 1 control: 0 mode: -1
track:  84 lba:    224793 (   899172) 49:59:18 adr: 1 control: 0 mode: -1
track:  85 lba:    229836 (   919344) 51:06:36 adr: 1 control: 0 mode: -1
track:  86 lba:    235054 (   940216) 52:16:04 adr: 1 control: 0 mode: -1
track:  87 lba:    241240 (   964960) 53:38:40 adr: 1 control: 0 mode: -1
track:  88 lba:    245468 (   981872) 54:34:68 adr: 1 control: 0 mode: -1
track:  89 lba:    250365 (  1001460) 55:40:15 adr: 1 control: 0 mode: -1
track:  90 lba:    255778 (  1023112) 56:52:28 adr: 1 control: 0 mode: -1
track:  91 lba:    261120 (  1044480) 58:03:45 adr: 1 control: 0 mode: -1
track:  92 lba:    267675 (  1070700) 59:31:00 adr: 1 control: 0 mode: -1
track:  93 lba:    274384 (  1097536) 61:00:34 adr: 1 control: 0 mode: -1
track:  94 lba:    276320 (  1105280) 61:26:20 adr: 1 control: 0 mode: -1
track:  95 lba:    279016 (  1116064) 62:02:16 adr: 1 control: 0 mode: -1
track:  96 lba:    281984 (  1127936) 62:41:59 adr: 1 control: 0 mode: -1
track:  97 lba:    285641 (  1142564) 63:30:41 adr: 1 control: 0 mode: -1
track:  98 lba:    289145 (  1156580) 64:17:20 adr: 1 control: 0 mode: -1
track:  99 lba:    291304 (  1165216) 64:46:04 adr: 1 control: 0 mode: -1
track:lout lba:    292350 (  1169400) 65:00:00 adr: 1 control: 0 mode: -1
